<mxfile host="app.diagrams.net" modified="2023-05-13T03:06:33.797Z" agent="Mozilla/5.0 (Windows NT 10.0; Win64; x64) AppleWebKit/537.36 (KHTML, like Gecko) Chrome/113.0.0.0 Safari/537.36" etag="nA-h244u6K_fZn8Uxq5n" version="21.2.9" type="github">
  <diagram id="LaiAP2UO8Ww4A4DlmH_y" name="第 1 页">
    <mxGraphModel dx="954" dy="584" grid="1" gridSize="10" guides="1" tooltips="1" connect="1" arrows="1" fold="1" page="1" pageScale="1" pageWidth="827" pageHeight="1169" math="0" shadow="0">
      <root>
        <mxCell id="0" />
        <mxCell id="1" parent="0" />
        <mxCell id="J0a2PL-B8L8It2Uqq7TF-12" style="edgeStyle=orthogonalEdgeStyle;rounded=0;orthogonalLoop=1;jettySize=auto;html=1;entryX=0.5;entryY=0;entryDx=0;entryDy=0;" edge="1" parent="1" source="J0a2PL-B8L8It2Uqq7TF-2" target="J0a2PL-B8L8It2Uqq7TF-3">
          <mxGeometry relative="1" as="geometry" />
        </mxCell>
        <mxCell id="J0a2PL-B8L8It2Uqq7TF-2" value="研究问题提出" style="text;html=1;strokeColor=none;fillColor=none;align=center;verticalAlign=middle;whiteSpace=wrap;rounded=0;" vertex="1" parent="1">
          <mxGeometry x="90" y="80" width="90" height="30" as="geometry" />
        </mxCell>
        <mxCell id="J0a2PL-B8L8It2Uqq7TF-13" style="edgeStyle=orthogonalEdgeStyle;rounded=0;orthogonalLoop=1;jettySize=auto;html=1;" edge="1" parent="1" source="J0a2PL-B8L8It2Uqq7TF-3" target="J0a2PL-B8L8It2Uqq7TF-4">
          <mxGeometry relative="1" as="geometry" />
        </mxCell>
        <mxCell id="J0a2PL-B8L8It2Uqq7TF-3" value="研究问题分析" style="text;html=1;strokeColor=none;fillColor=none;align=center;verticalAlign=middle;whiteSpace=wrap;rounded=0;" vertex="1" parent="1">
          <mxGeometry x="90" y="252.5" width="90" height="30" as="geometry" />
        </mxCell>
        <mxCell id="J0a2PL-B8L8It2Uqq7TF-14" style="edgeStyle=orthogonalEdgeStyle;rounded=0;orthogonalLoop=1;jettySize=auto;html=1;entryX=0.5;entryY=0;entryDx=0;entryDy=0;" edge="1" parent="1" source="J0a2PL-B8L8It2Uqq7TF-4" target="J0a2PL-B8L8It2Uqq7TF-5">
          <mxGeometry relative="1" as="geometry" />
        </mxCell>
        <mxCell id="J0a2PL-B8L8It2Uqq7TF-4" value="研究问题解决" style="text;html=1;strokeColor=none;fillColor=none;align=center;verticalAlign=middle;whiteSpace=wrap;rounded=0;" vertex="1" parent="1">
          <mxGeometry x="90" y="352.5" width="90" height="30" as="geometry" />
        </mxCell>
        <mxCell id="J0a2PL-B8L8It2Uqq7TF-5" value="研究问题总结与建议" style="text;html=1;strokeColor=none;fillColor=none;align=center;verticalAlign=middle;whiteSpace=wrap;rounded=0;" vertex="1" parent="1">
          <mxGeometry x="80" y="442.5" width="110" height="30" as="geometry" />
        </mxCell>
        <mxCell id="J0a2PL-B8L8It2Uqq7TF-6" value="选题背景与意义、研究思路与结构、研究方法与创新" style="rounded=1;whiteSpace=wrap;html=1;" vertex="1" parent="1">
          <mxGeometry x="280" y="80" width="420" height="40" as="geometry" />
        </mxCell>
        <mxCell id="J0a2PL-B8L8It2Uqq7TF-17" value="研究数据与基础模型概述&lt;font color=&quot;#ffffff&quot;&gt;&lt;br&gt;1&lt;br&gt;1&lt;/font&gt;" style="rounded=1;whiteSpace=wrap;html=1;" vertex="1" parent="1">
          <mxGeometry x="280" y="240" width="420" height="60" as="geometry" />
        </mxCell>
        <mxCell id="J0a2PL-B8L8It2Uqq7TF-19" value="" style="endArrow=none;dashed=1;html=1;dashPattern=1 3;strokeWidth=2;rounded=0;" edge="1" parent="1">
          <mxGeometry width="50" height="50" relative="1" as="geometry">
            <mxPoint x="80" y="220" as="sourcePoint" />
            <mxPoint x="720" y="220" as="targetPoint" />
          </mxGeometry>
        </mxCell>
        <mxCell id="J0a2PL-B8L8It2Uqq7TF-20" value="" style="group" vertex="1" connectable="0" parent="1">
          <mxGeometry x="280" y="140" width="420" height="60" as="geometry" />
        </mxCell>
        <mxCell id="J0a2PL-B8L8It2Uqq7TF-8" value="理论基础与文献分析&lt;font color=&quot;#ffffff&quot;&gt;&lt;br&gt;1&lt;br&gt;1&lt;/font&gt;" style="rounded=1;whiteSpace=wrap;html=1;" vertex="1" parent="J0a2PL-B8L8It2Uqq7TF-20">
          <mxGeometry width="420" height="60" as="geometry" />
        </mxCell>
        <mxCell id="J0a2PL-B8L8It2Uqq7TF-9" value="资本资产定价理论与实证研究" style="rounded=1;whiteSpace=wrap;html=1;dashed=1;" vertex="1" parent="J0a2PL-B8L8It2Uqq7TF-20">
          <mxGeometry x="10" y="27.692307692307693" width="160" height="27.692307692307693" as="geometry" />
        </mxCell>
        <mxCell id="J0a2PL-B8L8It2Uqq7TF-15" value="多因子资产定价模型" style="rounded=1;whiteSpace=wrap;html=1;dashed=1;" vertex="1" parent="J0a2PL-B8L8It2Uqq7TF-20">
          <mxGeometry x="180" y="27.692307692307693" width="110" height="27.692307692307693" as="geometry" />
        </mxCell>
        <mxCell id="J0a2PL-B8L8It2Uqq7TF-16" value="因子投资与投资组合" style="rounded=1;whiteSpace=wrap;html=1;dashed=1;" vertex="1" parent="J0a2PL-B8L8It2Uqq7TF-20">
          <mxGeometry x="300" y="27.692307692307693" width="110" height="27.692307692307693" as="geometry" />
        </mxCell>
        <mxCell id="J0a2PL-B8L8It2Uqq7TF-21" value="资本资产定价理论与实证研究" style="rounded=1;whiteSpace=wrap;html=1;dashed=1;" vertex="1" parent="1">
          <mxGeometry x="290" y="268" width="160" height="27.692307692307693" as="geometry" />
        </mxCell>
        <mxCell id="J0a2PL-B8L8It2Uqq7TF-22" value="多因子资产定价模型" style="rounded=1;whiteSpace=wrap;html=1;dashed=1;" vertex="1" parent="1">
          <mxGeometry x="460" y="268" width="110" height="27.692307692307693" as="geometry" />
        </mxCell>
        <mxCell id="J0a2PL-B8L8It2Uqq7TF-23" value="因子投资与投资组合" style="rounded=1;whiteSpace=wrap;html=1;dashed=1;" vertex="1" parent="1">
          <mxGeometry x="580" y="268" width="110" height="27.692307692307693" as="geometry" />
        </mxCell>
      </root>
    </mxGraphModel>
  </diagram>
</mxfile>
